<svg xmlns="http://www.w3.org/2000/svg" width="1200" height="630" viewBox="0 0 1200 630">
  <!-- Light background (from Quarto homepage hero light mode) -->
  <rect width="1200" height="630" fill="#F0F5F9"/>

  <!-- Chromium logo (original blue colors, by Jeremiah via icon-icons.com, CC BY 4.0) -->
  <g transform="translate(210, 135) scale(0.352)">
    <path fill="#91b0e8" d="m 455.38343,151.67357 c -315.14389,251.77256 -157.57195,125.88628 0,0 z m 0,0 -182.15835,0.0709 c 50.16028,8.2262 88.43552,51.76739 88.43598,104.25553 -0.0369,25.81373 -9.52228,50.72096 -26.66551,70.02016 l -90.33991,154.69625 c 3.75834,0.18663 7.53969,0.28361 11.34436,0.2836 124.26425,4.4e-4 225.00044,-100.73575 225,-225 1.4e-4,-37.65523 -9.26487,-73.14043 -25.61657,-104.32643 z"/>
    <path fill="#245dc4" d="M 256,30.999995 C 175.10717,30.999707 104.19611,73.695969 64.543022,137.77464 L 152.34506,276.05075 C 152.75237,282.63197 150.34377,256.47274 150.33894,256 150.33945,197.64522 197.64522,150.33945 256,150.33894 c 5.47864,0.0439 10.94555,0.51381 16.35131,1.40553 l 183.03212,-0.0709 C 417.77367,79.944188 342.60901,30.999685 256,30.999995 Z M 64.515913,137.81843 c -54.565551,261.00932 -27.28277,130.50467 0,0 z"/>
    <path fill="#548ae6" d="M 64.543022,137.77464 C 43.282672,172.13098 30.99984,212.6286 31,256 30.999573,376.45958 125.66286,474.80722 244.65564,480.7164 L 334.99555,326.02016 C 314.97124,348.64934 286.21674,361.62269 256,361.66106 205.40869,361.61946 161.94586,325.72274 152.34506,276.05075 Z"/>
    <circle fill="#F0F5F9" cx="256" cy="256" r="105.66199"/>
    <circle fill="#367bf0" cx="256" cy="256" r="87.187675"/>
  </g>

  <!-- Arrow (Public Domain, svgrepo.com) — Quarto blue -->
  <g transform="translate(455, 290)">
    <svg width="90" height="50" viewBox="0 0 16 16" fill="none">
      <path d="M8 6L8 2L10 2L16 8L10 14L8 14L8 10L0 10L0 6L8 6Z" fill="#5286AB"/>
    </svg>
  </g>

  <!-- Terminal/shell icon — Quarto blue -->
  <g transform="translate(590, 245)">
    <svg width="140" height="140" viewBox="0 0 100 100" fill="none">
      <rect x="5" y="15" width="90" height="70" rx="8" stroke="#5286AB" stroke-width="3.5" fill="none"/>
      <line x1="5" y1="35" x2="95" y2="35" stroke="#5286AB" stroke-width="3.5"/>
      <polyline points="25,50 40,58 25,66" stroke="#5286AB" stroke-width="3.5" fill="none" stroke-linecap="round" stroke-linejoin="round"/>
      <line x1="48" y1="66" x2="68" y2="66" stroke="#5286AB" stroke-width="3.5" stroke-linecap="round"/>
      <circle cx="18" cy="25" r="2.5" fill="#5286AB"/>
      <circle cx="28" cy="25" r="2.5" fill="#5286AB"/>
      <circle cx="38" cy="25" r="2.5" fill="#5286AB"/>
    </svg>
  </g>

  <!-- Quarto crosshair logo — Quarto blue -->
  <g transform="translate(780, 245)">
    <svg width="140" height="140" viewBox="0 0 120 120">
      <path fill="#5286AB" d="M55.8,56.8V1C26.1,3.1,2.6,27.1,1,56.8H55.8z"/>
      <path fill="#5286AB" d="M63.2,56.8H119C117.4,26.8,93.2,2.6,63.2,1V56.8z"/>
      <path fill="#5286AB" d="M55.8,64.2H1.1c2.1,29.2,25.4,52.6,54.6,54.6V64.2z"/>
      <path fill="#5286AB" d="M63.2,64.2V119c29.7-1.6,53.7-25.1,55.7-54.7H63.2z"/>
    </svg>
  </g>
</svg>
