<svg xmlns="http://www.w3.org/2000/svg" width="1200" height="630" viewBox="0 0 1200 630">
  <!-- Light background (Quarto homepage hero light mode) -->
  <rect width="1200" height="630" fill="#F0F5F9"/>

  <!-- Quarto logo (recolored to Quarto blue #5286AB) -->
  <g transform="translate(205, 175) scale(2.333)">
    <g fill="#5286AB" fill-rule="evenodd" clip-rule="evenodd">
      <path d="M55.8,56.8V1C26.1,3.1,2.6,27.1,1,56.8H55.8z"/>
      <path d="M63.2,56.8H119C117.4,26.8,93.2,2.6,63.2,1V56.8z"/>
      <path d="M55.8,64.2H1.1c2.1,29.2,25.4,52.6,54.6,54.6V64.2z"/>
      <path d="M63.2,64.2V119c29.7-1.6,53.7-25.1,55.7-54.7H63.2z"/>
    </g>
  </g>

  <!-- Arrow (Public Domain, svgrepo.com) — Quarto blue -->
  <g transform="translate(555, 290)">
    <svg width="90" height="50" viewBox="0 0 16 16" fill="none">
      <path d="M8 6L8 2L10 2L16 8L10 14L8 14L8 10L0 10L0 6L8 6Z" fill="#5286AB"/>
    </svg>
  </g>

  <!-- Posit Open Source logo (original blue #447099) -->
  <g transform="translate(715, 175)">
    <svg width="280" height="280" viewBox="0 0 410 410">
      <path d="M205.007,0L27.466,102.496v205.007l177.584,102.496,177.485-102.44V102.496L205.007,0Z" fill="#447099"/>
      <g>
        <polygon points="127.75 178.527 139.607 173.284 193.274 149.569 205 144.399 334.661 87.111 334.661 156.213 282.236 178.527 270.378 173.284 325.184 149.948 325.184 101.656 216.712 149.569 205 154.753 151.553 178.366 139.68 183.608 101.858 200.314 101.858 212.713 139.096 229.17 150.968 234.413 205.832 258.639 217.456 263.78 325.184 311.371 325.184 262.568 270.948 239.495 282.82 234.252 334.661 256.317 334.661 325.916 205.862 269.008 194.223 263.867 139.038 239.495 127.165 234.252 92.395 218.875 92.395 194.152 127.75 178.527" fill="#fff"/>
        <polygon points="217.077 206.258 270.291 183.608 258.433 178.366 192.894 206.258 259.017 234.413 270.875 229.17 217.077 206.258" fill="#fff"/>
        <polygon points="139.096 229.17 150.968 234.413 205 211.413 192.909 206.258 139.096 229.17" fill="#fff"/>
        <polygon points="151.553 178.366 139.68 183.608 192.909 206.258 205 201.118 151.553 178.366" fill="#fff"/>
        <polygon points="282.236 178.527 270.378 173.284 216.712 149.569 205 144.399 75.339 87.111 75.339 156.213 127.75 178.527 139.607 173.284 84.802 149.948 84.802 101.656 193.274 149.569 205 154.753 258.447 178.366 270.305 183.608 308.127 200.314 308.127 212.713 270.889 229.17 259.017 234.413 204.168 258.639 192.529 263.78 84.802 311.371 84.802 262.568 139.038 239.495 127.165 234.252 75.339 256.317 75.339 325.916 204.124 269.008 215.762 263.867 270.948 239.495 282.82 234.252 317.605 218.875 317.605 194.152 282.236 178.527" fill="#fff"/>
      </g>
    </svg>
  </g>
</svg>
