<?xml version="1.0" encoding="UTF-8" standalone="no"?>
<!-- Generator: Adobe Illustrator 27.4.0, SVG Export Plug-In . SVG Version: 6.00 Build 0)  -->

<svg
   version="1.1"
   id="Layer_1"
   x="0px"
   y="0px"
   viewBox="0 0 1920 1080"
   enable-background="new 0 0 599 125.4"
   xml:space="preserve"
   sodipodi:docname="quarto-codespaces.svg"
   width="1920"
   height="1080"
   inkscape:export-filename="quarto-codespaces.png"
   inkscape:export-xdpi="96"
   inkscape:export-ydpi="96"
   inkscape:version="1.4 (e7c3feb1, 2024-10-09)"
   xmlns:inkscape="http://www.inkscape.org/namespaces/inkscape"
   xmlns:sodipodi="http://sodipodi.sourceforge.net/DTD/sodipodi-0.dtd"
   xmlns="http://www.w3.org/2000/svg"
   xmlns:svg="http://www.w3.org/2000/svg"><defs
   id="defs11" /><sodipodi:namedview
   id="namedview11"
   pagecolor="#505050"
   bordercolor="#eeeeee"
   borderopacity="1"
   inkscape:showpageshadow="0"
   inkscape:pageopacity="0"
   inkscape:pagecheckerboard="0"
   inkscape:deskcolor="#d1d1d1"
   inkscape:zoom="0.45039663"
   inkscape:cx="831.48935"
   inkscape:cy="571.71831"
   inkscape:window-width="1512"
   inkscape:window-height="828"
   inkscape:window-x="0"
   inkscape:window-y="38"
   inkscape:window-maximized="1"
   inkscape:current-layer="Layer_1" />








<g
   id="g4"
   transform="matrix(2.4913799,0,0,2.4913799,210.89381,290)">
	<path
   fill-rule="evenodd"
   clip-rule="evenodd"
   fill="#74aadb"
   d="M 56,54.4 V 1.5 C 27.9,3.5 5.6,26.2 4.1,54.4 Z"
   id="path1" />
	<path
   fill-rule="evenodd"
   clip-rule="evenodd"
   fill="#74aadb"
   d="m 63,54.4 h 52.9 C 114.4,25.9 91.5,3 63,1.5 Z"
   id="path2" />
	<path
   fill-rule="evenodd"
   clip-rule="evenodd"
   fill="#74aadb"
   d="M 56,61.4 H 4.2 c 2,27.7 24.1,49.9 51.8,51.8 z"
   id="path3" />
	<path
   fill-rule="evenodd"
   clip-rule="evenodd"
   fill="#74aadb"
   d="m 63,61.4 v 51.9 c 28.2,-1.5 50.9,-23.8 52.8,-51.9 z"
   id="path4" />
</g><path
   fill="#4f789e"
   d="m 1671.0916,347.30174 h 4.9827 v -10.96207 h 3.488 l 6.4775,10.96207 h 5.2319 l -6.9758,-11.21121 c 1.7439,-0.24914 3.2388,-0.99655 4.4845,-1.99311 1.2457,-1.24569 1.7439,-2.98965 1.7439,-5.23189 0,-2.49138 -0.7474,-4.48449 -2.2422,-5.97932 -1.4948,-1.49482 -3.9862,-1.9931 -6.9759,-1.9931 h -10.2146 z m 4.7336,-22.17328 h 3.4879 c 0.7474,0 1.4949,0 2.2423,0 0.7474,0 1.4948,0.24913 1.9931,0.49827 0.4982,0.24914 0.9965,0.49828 1.4948,1.24569 0.4983,0.49828 0.4983,1.24569 0.4983,1.99311 0,0.74741 -0.2492,1.49482 -0.4983,1.9931 -0.4983,0.49828 -0.7474,0.99655 -1.4948,1.24569 -0.4983,0.24914 -1.2457,0.49828 -1.9931,0.49828 -0.7474,0 -1.4949,0 -2.2423,0 h -3.4879 z m -17.1905,18.18707 c 1.2457,2.74052 2.9896,5.2319 4.9827,7.47414 1.9931,1.9931 4.4845,3.73707 7.225,4.98276 2.7405,1.24569 5.7302,1.74397 8.969,1.74397 3.2388,0 6.2284,-0.49828 8.969,-1.74397 2.7405,-1.24569 5.2319,-2.98966 7.4741,-4.98276 1.9931,-1.9931 3.7371,-4.48448 4.9828,-7.47414 1.2457,-2.74052 1.7439,-5.73017 1.7439,-8.96897 0,-3.23879 -0.4982,-6.22845 -1.7439,-8.96897 -1.2457,-2.74051 -2.9897,-5.23189 -4.9828,-7.225 -1.9931,-1.9931 -4.4845,-3.73707 -7.4741,-4.98276 -2.7406,-1.24569 -5.7302,-1.74396 -8.969,-1.74396 -3.2388,0 -6.2285,0.49827 -8.969,1.74396 -2.7405,1.24569 -5.2319,2.98966 -7.225,4.98276 -1.9931,1.99311 -3.737,4.48449 -4.9827,7.225 -1.2457,2.74052 -1.744,5.73018 -1.744,8.96897 0,3.2388 0.4983,6.22845 1.744,8.96897 z m 3.737,-16.44311 c 0.9966,-2.24224 2.2423,-4.23534 3.9862,-5.97931 1.744,-1.74397 3.7371,-2.98966 5.9794,-3.98621 2.2422,-0.99655 4.7336,-1.49483 7.4741,-1.49483 2.4914,0 4.9828,0.49828 7.4741,1.49483 2.2423,0.99655 4.2354,2.24224 5.9794,3.98621 1.7439,1.74397 2.9896,3.73707 3.9862,5.97931 0.9965,2.24224 1.4948,4.73362 1.4948,7.47414 0,2.49138 -0.4983,4.98276 -1.4948,7.47414 -0.9966,2.24224 -2.2423,4.23535 -3.9862,5.97931 -1.744,1.74397 -3.7371,2.98966 -5.9794,3.98621 -2.2422,0.99655 -4.7336,1.49483 -7.4741,1.49483 -2.7405,0 -4.9828,-0.49828 -7.4741,-1.49483 -2.2423,-0.99655 -4.2354,-2.24224 -5.9794,-3.98621 -1.7439,-1.74396 -2.9896,-3.73707 -3.9862,-5.97931 -0.9965,-2.24224 -1.4948,-4.73362 -1.4948,-7.47414 0,-2.74052 0.4983,-5.2319 1.4948,-7.47414 z"
   id="path5"
   style="stroke-width:2.49138" /><path
   fill="#4f789e"
   d="m 745.54394,351.78622 v 32.63708 c -14.45001,-25.16294 -39.86208,-41.35691 -73.24657,-41.35691 -53.06639,0 -90.18795,40.36036 -90.18795,94.92158 0,55.05949 37.12156,94.42329 90.18795,94.42329 33.38449,0 59.0457,-15.94483 73.24657,-41.10776 v 105.13623 c 0,3.48793 2.49138,5.97931 5.97931,5.97931 h 9.96552 c 3.48793,0 5.97931,-2.49138 5.97931,-5.97931 V 351.78622 c 0,-3.48793 -2.49138,-5.97931 -5.97931,-5.97931 h -9.96552 c -3.48793,0 -5.97931,2.49138 -5.97931,5.97931 z m -71.00433,159.44832 c -42.6026,0 -71.25347,-30.39484 -71.25347,-73.24657 0,-42.85174 28.65087,-74.24312 71.25347,-74.24312 43.10087,0 71.00433,31.14224 71.00433,74.24312 0,43.10087 -27.90346,73.24657 -71.00433,73.24657 z"
   id="path6"
   style="stroke-width:2.49138" /><path
   fill="#4f789e"
   d="m 954.32157,351.78622 v 104.8871 c 0,36.37414 -24.66466,56.55432 -56.55432,56.55432 -31.39139,0 -56.55433,-20.42932 -56.55433,-56.55432 v -104.8871 c 0,-3.48793 -2.49138,-5.97931 -5.97931,-5.97931 h -9.96552 c -3.48793,0 -5.97931,2.49138 -5.97931,5.97931 v 107.62761 c 0,50.32588 35.87587,72.99743 73.74485,72.99743 24.41552,0 47.83449,-9.46724 61.28794,-30.39483 v 21.17673 c 0,3.48793 2.49138,5.97931 5.97931,5.97931 h 9.96552 c 3.48794,0 5.97932,-2.49138 5.97932,-5.97931 V 351.78622 c 0,-3.48793 -2.49138,-5.97931 -5.97932,-5.97931 h -9.96552 c -3.48793,0 -5.97931,2.49138 -5.97931,5.97931 z"
   id="path7"
   style="stroke-width:2.49138" /><path
   fill="#4f789e"
   d="m 1186.7673,351.78622 v 32.38794 c -14.45,-25.16294 -39.8621,-41.10777 -73.2466,-41.10777 -53.0663,0 -90.1879,39.3638 -90.1879,94.4233 0,54.56122 37.1216,94.92157 90.1879,94.92157 33.3845,0 59.0458,-16.4431 73.2466,-41.3569 v 32.38794 c 0,3.48793 2.4914,5.97931 5.9793,5.97931 h 9.9655 c 3.488,0 5.9794,-2.49138 5.9794,-5.97931 V 351.78622 c 0,-3.48793 -2.4914,-5.97931 -5.9794,-5.97931 h -9.9655 c -3.4879,0 -5.9793,2.49138 -5.9793,5.97931 z m -71.0043,159.44832 c -42.6026,0 -71.2535,-30.64398 -71.2535,-73.74485 0,-43.10087 28.6509,-73.74484 71.2535,-73.74484 43.1009,0 71.0043,30.64397 71.0043,73.74484 0,43.10087 -27.9034,73.74485 -71.0043,73.74485 z"
   id="path8"
   style="stroke-width:2.49138" /><path
   fill="#4f789e"
   d="m 1282.4363,379.68968 v -27.90346 c 0,-3.48793 -2.4914,-5.97931 -5.9793,-5.97931 h -9.9655 c -3.488,0 -5.9793,2.49138 -5.9793,5.97931 v 171.40694 c 0,3.48793 2.4913,5.97931 5.9793,5.97931 h 9.9655 c 3.4879,0 5.9793,-2.49138 5.9793,-5.97931 v -97.66209 c 0,-39.86208 28.6509,-58.54743 59.0457,-61.28795 3.4879,-0.49827 5.481,-2.74052 5.481,-6.47759 v -8.71983 c 0,-3.9862 -1.9931,-5.97931 -5.9793,-5.48103 -24.1664,1.74396 -46.0905,13.70259 -58.5474,36.12501 z"
   id="path9"
   style="stroke-width:2.49138" /><path
   fill="#4f789e"
   d="m 1469.0407,357.26726 v -5.48104 c 0,-3.48793 -2.4914,-5.97931 -5.9794,-5.97931 h -39.862 v -49.8276 c 0,-3.48793 -2.4914,-5.97931 -5.9793,-5.97931 h -9.9656 c -3.4879,0 -5.9793,2.49138 -5.9793,5.97931 v 49.8276 h -20.4293 c -3.4879,0 -5.9793,2.49138 -5.9793,5.97931 v 5.48104 c 0,3.48793 2.4914,5.97931 5.9793,5.97931 h 20.4293 v 125.06727 c 0,25.91035 15.9449,40.60949 41.1078,40.60949 h 18.6853 c 3.488,0 5.9794,-2.49138 5.9794,-5.97931 v -6.22845 c 0,-3.48793 -2.4914,-5.97931 -5.9794,-5.97931 h -11.9586 c -13.9517,0 -25.9103,-6.47759 -25.9103,-25.16294 V 363.24657 h 39.862 c 3.488,0 5.9794,-2.24224 5.9794,-5.97931 z"
   id="path10"
   style="stroke-width:2.49138" /><path
   fill="#4f789e"
   d="m 1587.8795,532.6604 c 55.0595,0 92.4302,-40.60949 92.4302,-95.17071 0,-55.0595 -37.3707,-94.92157 -92.4302,-94.92157 -55.0595,0 -92.9285,39.86207 -92.9285,94.92157 0,54.56122 37.869,95.17071 92.9285,95.17071 z m 0,-21.42586 c -42.3535,0 -71.0043,-31.39139 -71.0043,-73.74485 0,-42.35346 28.6508,-73.74484 71.0043,-73.74484 42.3534,0 70.2569,31.39138 70.2569,73.74484 0,42.35346 -28.1526,73.74485 -70.2569,73.74485 z"
   id="path11"
   style="stroke-width:2.49138" /><text
   xml:space="preserve"
   style="font-size:156.127px;line-height:1.25;font-family:'Mona Sans';-inkscape-font-specification:'Mona Sans, Normal';font-variant-ligatures:none;stroke-width:2.49138"
   x="211.55434"
   y="763.92688"
   id="text11"><tspan
     sodipodi:role="line"
     id="tspan11"
     x="211.55434"
     y="763.92688"
     style="font-size:156.127px;stroke-width:2.49138"><tspan
   style="font-style:normal;font-variant:normal;font-weight:bold;font-stretch:normal;font-size:156.127px;font-family:'Mona Sans';-inkscape-font-specification:'Mona Sans Bold';stroke-width:2.49138"
   id="tspan12">GitHub</tspan> Codespaces</tspan></text></svg>
