<?xml version="1.0" encoding="UTF-8"?>
<svg id="Logo" xmlns="http://www.w3.org/2000/svg" version="1.1" viewBox="0 0 688 187.3">
  <!-- Generator: Adobe Illustrator 29.3.1, SVG Export Plug-In . SVG Version: 2.1.0 Build 151)  -->
  <defs>
    <style>
      .st0 {
        fill: #fff;
      }

      .st1 {
        fill: #447099;
      }

      .st2 {
        fill: #ee6331;
      }
    </style>
  </defs>
  <path class="st0" d="M379,45.7c31,0,52.8,21.1,52.8,50.4s-21.8,50.2-52.8,50.2-52.4-21.1-52.4-50.2,21.5-50.4,52.4-50.4M379,121c14.7,0,24.8-9.3,24.8-25s-11.2-25.2-24.8-25.2-24.4,9.1-24.4,25.2,9.9,25,24.4,25"/>
  <path class="st0" d="M550.8,6c8.8,0,15.1,6.3,15.1,14.6s-6.3,15-15.1,15-15.3-6.3-15.3-15,6.3-14.6,15.3-14.6M537.2,47.5h27v97h-27V47.5Z"/>
  <path class="st0" d="M576.4,47.5h18.5v-22.6h27v22.6h29.2v25.2h-29.2v31.5c0,11.8,2.6,16.2,9.9,16.2s11.4-2.2,16.6-6.3l13.8,17.1c-6.7,7.1-19.8,14.4-33,14.4-20.3,0-34.3-11-34.3-33.4v-39.6h-18.5v-25.2h0Z"/>
  <path class="st0" d="M523.2,59.3c-6.6-6.4-20.4-14.6-39.9-14.6-27.8,0-44.2,11.5-44.2,30.4,0,29.3,46.6,30,57.6,36.4,2,1.1,3.2,2.7,2.5,4.9-2.1,6.5-28.2,9.7-47.5-9l-15.7,18.7c7,9.3,22.4,20.2,47.5,20.2s43.4-9.4,43.4-30.9-18-27-33.9-31.6c-4.5-1.2-8.9-2.3-12.7-3.3-6.3-1.6-14.7-3.4-13.4-8.1,2.5-8.5,30.5-3.2,40.3,5.8l16-18.9h0Z"/>
  <path class="st0" d="M221.3,47.7h27.1v5c5-4.7,14.2-7.1,21.7-7.1,29.5,0,47.8,20.4,47.8,49.2s-19.1,51.6-48.6,51.6-17.9-1.5-20.9-4.9v40.7h-27.1V47.7h0ZM248.4,81.9v31c3,4.5,9.5,8.2,17.2,8.2,15.1,0,24.3-9.5,24.3-24.3s-8.6-26-22.8-26-15.1,4.5-18.7,11"/>
  <polygon id="fullLogo-8" class="st2" points="39.4 76.5 47.4 72.9 83.6 56.8 91.5 53.2 179 14.2 179 61.3 143.6 76.5 135.6 72.9 172.6 57 172.6 24.1 99.4 56.8 91.5 60.3 55.4 76.4 47.4 79.9 21.9 91.3 21.9 99.7 47 110.9 55 114.5 92.1 131 99.9 134.5 172.6 166.9 172.6 133.7 136 118 144 114.4 179 129.4 179 176.8 92.1 138.1 84.2 134.6 47 118 39 114.4 15.5 103.9 15.5 87.1 39.4 76.5"/>
  <polygon class="st2" points="99.7 95.3 135.6 79.9 127.6 76.4 83.3 95.3 127.9 114.5 135.9 110.9 99.7 95.3"/>
  <polygon id="fullLogo-9" class="st1" points="47 110.9 55 114.5 91.5 98.9 83.3 95.3 47 110.9"/>
  <polygon id="fullLogo-10" class="st1" points="55.4 76.4 47.4 79.9 83.3 95.3 91.5 91.8 55.4 76.4"/>
  <polygon id="fullLogo-11" class="st1" points="143.6 76.5 135.6 72.9 99.4 56.8 91.5 53.2 4 14.2 4 61.3 39.4 76.5 47.4 72.9 10.4 57 10.4 24.1 83.6 56.8 91.5 60.3 127.6 76.4 135.6 79.9 161.1 91.3 161.1 99.7 136 110.9 128 114.5 90.9 131 83.1 134.5 10.4 166.9 10.4 133.7 47 118 39 114.4 4 129.4 4 176.8 90.9 138.1 98.8 134.6 136 118 144 114.4 167.5 103.9 167.5 87.1 143.6 76.5"/>
  <path class="st0" d="M680.6,55.9c0,4.8-3.8,8.7-8.8,8.7s-8.8-3.8-8.8-8.7,3.9-8.5,8.8-8.5,8.8,3.8,8.8,8.5ZM665.3,55.9c0,3.8,2.8,6.8,6.7,6.8s6.5-3,6.5-6.8-2.8-6.9-6.6-6.9-6.6,3.1-6.6,6.8ZM670.5,60.3h-2v-8.5c.8-.2,1.9-.3,3.3-.3s2.3.3,3,.6c.5.4.8,1,.8,1.9s-.7,1.7-1.8,2h0c.8.4,1.3,1,1.6,2.2.3,1.3.4,1.8.6,2.1h-2.1c-.3-.3-.4-1.1-.7-2.1-.2-.9-.7-1.4-1.8-1.4h-.9v3.4h0ZM670.6,55.5h.9c1.1,0,2-.4,2-1.2s-.6-1.3-1.8-1.3-.9,0-1.1,0v2.5h0Z"/>
</svg>