<?xml version="1.0" encoding="UTF-8" standalone="no"?>
<!-- Created with Inkscape (http://www.inkscape.org/) -->

<svg
   version="1.1"
   id="svg1"
   width="1250"
   height="1250"
   fill="#d7d9df"
   stroke="#d7d9df"
   viewBox="0 0 1250 1250"
   sodipodi:docname="quarto-wizard.svg"
   inkscape:version="1.4 (e7c3feb1, 2024-10-09)"
   xmlns:inkscape="http://www.inkscape.org/namespaces/inkscape"
   xmlns:sodipodi="http://sodipodi.sourceforge.net/DTD/sodipodi-0.dtd"
   xmlns:xlink="http://www.w3.org/1999/xlink"
   xmlns="http://www.w3.org/2000/svg"
   xmlns:svg="http://www.w3.org/2000/svg">
  <sodipodi:namedview
     id="namedview1"
     pagecolor="#505050"
     bordercolor="#eeeeee"
     borderopacity="1"
     inkscape:showpageshadow="0"
     inkscape:pageopacity="0"
     inkscape:pagecheckerboard="0"
     inkscape:deskcolor="#d1d1d1"
     inkscape:zoom="0.31626601"
     inkscape:cx="573.88399"
     inkscape:cy="833.1594"
     inkscape:window-width="1512"
     inkscape:window-height="828"
     inkscape:window-x="0"
     inkscape:window-y="38"
     inkscape:window-maximized="1"
     inkscape:current-layer="g1" />
  <defs
     id="defs1">
    <inkscape:path-effect
       effect="bspline"
       id="path-effect10"
       is_visible="true"
       lpeversion="1.3"
       weight="33.333333"
       steps="2"
       helper_size="0"
       apply_no_weight="true"
       apply_with_weight="true"
       only_selected="false"
       uniform="false" />
    <inkscape:path-effect
       effect="bspline"
       id="path-effect9"
       is_visible="true"
       lpeversion="1.3"
       weight="33.333333"
       steps="2"
       helper_size="0"
       apply_no_weight="true"
       apply_with_weight="true"
       only_selected="false"
       uniform="false" />
    <inkscape:path-effect
       effect="bspline"
       id="path-effect8"
       is_visible="true"
       lpeversion="1.3"
       weight="33.333333"
       steps="2"
       helper_size="0"
       apply_no_weight="true"
       apply_with_weight="true"
       only_selected="false"
       uniform="false" />
    <inkscape:path-effect
       effect="bspline"
       id="path-effect7"
       is_visible="true"
       lpeversion="1.3"
       weight="33.333333"
       steps="2"
       helper_size="0"
       apply_no_weight="true"
       apply_with_weight="true"
       only_selected="false"
       uniform="false" />
    <pattern
       inkscape:collect="always"
       xlink:href="#pattern9"
       preserveAspectRatio="xMidYMid"
       id="wizard"
       patternTransform="matrix(1.3540171,0,0,1.3540171,8.8646073,7.0835344)" />
    <pattern
       patternUnits="userSpaceOnUse"
       width="630.64983"
       height="907.44761"
       patternTransform="translate(326.35017,171.55239)"
       preserveAspectRatio="xMidYMid"
       id="pattern36">
      <g
         id="g36"
         style="stroke:none;display:inline"
         transform="translate(-326.35017,-171.55239)">
        <path
           style="stroke:none;display:inline;"
           d="m 367,175 c -20.71005,-0.009 -25.5217,31.7301 -27.54828,47 -5.34433,40.26819 -0.92053,83.77844 15.84421,121 1.8927,4.20221 4.63742,8.09991 7.08124,11.99768 1.4917,2.37921 3.0494,4.7323 5.0278,6.74292 6.95798,7.07123 14.97146,4.65045 20.46313,-2.81287 C 395.58762,348.43677 397.70157,334.69763 398,322 c 9.92813,5.53534 13.41824,31.29718 15.2084,42 3.93717,23.53937 7.77485,48.13495 8.6998,72 0.26291,6.78308 -1.79187,13.28699 -1.56292,20 0.52096,15.27515 4.22576,32.0036 -3.89548,46 -5.80124,9.99805 -16.46402,17.46576 -24.14465,26 -13.52637,15.02966 -25.556,31.83105 -37.68006,48 -11.65231,15.53986 -24.90442,33.25031 -27.76993,53 -4.08551,28.15826 17.25089,41.4693 41.14484,48.58868 7.22623,2.15314 28.52448,0.71247 29.39832,10.51612 0.70214,7.87762 -7.32407,13.73236 -7.17936,21.8952 0.15363,8.66565 8.99985,15.7475 8.28385,24 -0.46829,5.39746 -5.55924,10.02087 -7.50183,15 -2.94287,7.54303 -2.44919,17.03735 -1.83008,25 0.72488,9.323 8.48004,18.03638 7.90408,27 -1.31778,20.50867 -10.80426,41.05438 -12.71268,62 -2.73846,30.0556 5.19931,57.4375 13.19098,86 6.02274,21.52551 13.37732,54.614 29.66178,70.7271 13.63855,13.4949 35.517,21.259 52.78494,28.9415 13.99557,6.2267 28.24335,15.5112 43,19.5418 9.86945,2.6959 19.96771,0.7226 30,2.2428 36.15955,5.4799 70.39563,8.5468 107,8.5468 19.65143,0 38.62213,-3.3713 58,-6.3948 6.63336,-1.035 18.01117,-1.3706 22.82452,-6.7184 4.47174,-4.9681 2.34839,-17.7421 1.81757,-23.8868 -1.65826,-19.1953 -1.93231,-38.7429 -2.64209,-58 26.41791,9.13397 49.87781,24.0815 78,29.4338 11.36945,2.1639 24.34064,4.7229 34.89581,-1.6555 12.2898,-7.4267 11.68518,-25.15623 13.37622,-37.7783 4.77362,-35.63 2.91822,-71.38629 5.85065,-107 0.84674,-10.28369 11.64575,-16.75549 17.90363,-24.00916 8.60443,-9.97363 13.35803,-22.82507 21.90057,-32.53894 6.60413,-7.50964 16.64502,-10.28003 22.97272,-18.47448 C 943.35242,781.03101 943.88971,764.35229 929,759 c 3.20715,-7.83649 9.26996,-14.32123 10.34875,-23 2.50599,-20.16003 -17.32189,-22.76123 -31.34875,-19 -0.0574,-22.5697 -20.33148,-27.74835 -35.96277,-12.86755 -6.15216,5.85681 -9.87079,15.60467 -16.61572,20.44226 -8.98712,6.44568 -20.24976,5.56964 -29.21906,13.8847 -8.92724,8.27606 -13.44384,23.315 -24.27795,29.02558 -15.42169,8.12866 -32.47925,4.10522 -39.26556,-12.57251 -2.72339,-6.69288 5.23706,-13.37561 9.11987,-17.94501 C 783.86584,722.7431 795.9165,708.56317 807.60242,694 840.69012,652.76562 875.15601,612.54285 909.08813,572 925.08337,552.88855 945.30237,535.32428 957,513 l -16,-6 h -1 c -25.04419,19.31122 -43.25861,43.81006 -63.41663,68 -28.37536,34.05084 -56.64117,68.25061 -85.37091,101.99976 -11.86279,13.93536 -23.4209,28.0899 -35.35522,41.99981 -3.33399,3.88587 -8.70087,12.83026 -14.88037,10.97064 -7.16376,-2.15582 -6.64923,-10.22442 -8.55652,-15.97027 -1.31659,-3.96625 -5.23523,-8.53186 -4.10315,-12.90595 2.55518,-9.87243 15.9823,-11.43603 23.6828,-14.591 10.73199,-4.39697 19.50439,-12.61865 25.46826,-22.50305 4.37988,-7.2591 5.46326,-15.35901 8.77588,-22.99994 5.40924,-12.47699 11.94946,-23.3938 14.53473,-37 1.75635,-9.24353 -1.28552,-25.96509 3.48608,-33.66815 5.21698,-8.42206 17.33057,-14.24292 24.73505,-20.74536 20.2016,-17.74054 37.44897,-37.38184 47.67053,-62.58649 3.9516,-9.74402 7.6604,-23.57495 4.69538,-34 C 866.70258,401.44373 799.3988,393.99829 754,388.31146 742.06183,386.81604 725.15698,387.80432 714.19727,382.84241 705.83441,379.05621 698.90039,368.64679 692.83527,362 680.9234,348.9458 668.16168,337.1286 655,325.34442 608.71228,283.90118 557.07941,250.13556 503,219.89148 483.05072,208.73474 457.22455,190.23608 434,188 l -7,-5 c -16.66772,-2.74634 -43.63947,-18.21399 -60,-8 z"
           id="path136" />
        <ellipse
           style="stroke:none;fill-opacity:1;"
           id="path35"
           cx="572.02576"
           cy="967.16132"
           rx="162.88437"
           ry="108.70963" />
        <ellipse
           style="stroke:none;fill-opacity:1;"
           id="path36"
           cx="607.01929"
           cy="1029.2295"
           rx="57.507092"
           ry="46.202278" />
      </g>
    </pattern>
    <pattern
       patternUnits="userSpaceOnUse"
       width="630.64984"
       height="912.75772"
       patternTransform="translate(326.35016,171.55238)"
       preserveAspectRatio="xMidYMid"
       id="pattern37">
      <g
         id="g37"
         transform="translate(-326.35016,-171.55238)">
        <rect
           style="stroke:none;fill:url(#pattern36);"
           width="630.64984"
           height="907.44763"
           x="326.35016"
           y="171.55238"
           id="rect36" />
        <ellipse
           style="stroke:none;display:inline;fill-opacity:1;"
           id="path37"
           cx="615.23022"
           cy="1049.6598"
           rx="122.47569"
           ry="32.672077" />
      </g>
    </pattern>
    <clipPath
       clipPathUnits="userSpaceOnUse"
       id="clipPath46">
      <path
         id="path46"
         style="stroke:none;fill-opacity:1;fill-rule:nonzero;"
         d="M 326.34961,171.55273 V 1084.3105 H 957 V 269.35352 c -9.06017,-1.93044 -18.2551,-3.26913 -27.27344,-5.44532 -15.10909,-4.1847 -24.75874,-6.65889 -39.5332,-11.50586 -23.1469,-7.59365 -9.77031,-3.82515 -31.61133,-11.56054 -6.21933,-2.20268 -12.66922,-3.72837 -18.78125,-6.25196 -13.2707,-4.05204 -23.78185,-8.61589 -35.9707,-15.48437 -10.14183,-5.71497 -19.69266,-11.33357 -27.47461,-20.09375 -2.71789,-2.35893 -9.9364,-8.57669 -11.25781,-10.05469 -2.03005,-2.2706 -3.55053,-4.95223 -5.24024,-7.48633 -2.17586,-3.26318 -4.39452,-6.55898 -6.49414,-9.91797 z m 461.20312,0 c 0.27584,0.34921 0.51094,0.731 0.8086,1.0625 0.58445,0.65091 1.6259,0.6912 2.32812,1.21289 1.51083,1.12245 2.84715,2.46107 4.27149,3.69141 6.93327,7.83524 13.9433,12.03731 23.11914,16.98633 9.87304,5.32504 19.05569,9.77394 29.80469,12.82812 6.26683,2.62674 12.90554,4.14632 19.29296,6.41016 19.16388,6.7921 13.43125,5.61611 32.47266,11.84961 13.57449,4.44382 23.77489,7.07852 37.65625,10.91602 6.62157,1.09886 13.18001,2.37419 19.69336,3.83203 v -68.78907 z" />
    </clipPath>
    <pattern
       patternUnits="userSpaceOnUse"
       width="630.65039"
       height="935.67293"
       patternTransform="translate(301.41837,257.63391)"
       preserveAspectRatio="xMidYMid"
       id="pattern9">
      <g
         id="g9"
         transform="translate(-301.41837,-257.63391)">
        <g
           id="g40"
           transform="translate(-24.93124,86.08118)"
           style="stroke:none;display:inline"
           inkscape:label="wizard">
          <g
             id="g39">
            <path
               id="rect37"
               clip-path="url(#clipPath46)"
               style="stroke:none;display:inline;fill:url(#pattern37);"
               d="m 326.34961,171.55273 v 230.67969 c 0.63723,0.0841 1.27245,0.19395 1.91016,0.27149 -0.66861,1.82359 -1.21471,3.70207 -1.82422,5.55273 0.39386,0.41507 0.26111,1.08389 -0.0859,1.93164 v 84.74805 c 3.42556,-0.0539 6.85361,0.0654 10.16016,0.85937 1.88582,0.45282 2.92148,2.55103 4.38281,3.82618 0.97252,1.80765 2.40397,3.43653 2.91797,5.42382 1.38545,5.35667 0.21324,15.98522 -1.96485,20.83985 -1.61647,3.60285 -4.13294,6.72863 -6.19922,10.09375 -1.91405,3.25904 -3.82273,6.52147 -5.74218,9.77734 -1.18221,2.00532 -2.3381,4.0252 -3.55469,6.01172 v 373.67383 c 0.65455,0.3452 1.22475,0.8477 1.4375,1.46679 2.01036,5.85007 0.2759,13.34244 2.82812,18.6504 0.97118,-1.32948 1.55215,-5.04037 1.78125,-6.56055 -0.71943,-3.36545 -1.5812,-7.04354 -1.74414,-9.1875 6.24143,7.21066 10.2062,16.15546 14.42774,24.64258 1.36425,2.76412 2.7547,5.54705 4.2168,8.29882 3.84699,6.02993 6.38429,10.70808 11.64648,19.49805 2.72574,4.55307 5.60657,9.01203 8.41016,13.51758 5.30767,8.44994 10.35938,17.05544 15.55078,25.57614 1.11934,0.775 2.25998,1.5147 3.39062,2.2715 1.37011,1.6142 2.6473,3.3123 4.11133,4.8418 0.35116,0.3668 -0.49727,-0.8854 -0.74609,-1.3281 1.48761,1.6273 3.05902,3.1827 4.46289,4.8828 0.45924,0.5561 0.82715,1.1806 1.21679,1.7891 0.70304,0.4128 1.46146,0.7471 2.07032,1.2929 1.39177,2.1653 2.78401,4.3309 4.17578,6.4961 -0.12131,-0.4211 -0.80134,-1.2756 -0.36328,-1.2636 0.02,4e-4 1.98256,1.9623 2.54492,2.5195 0.01,0.01 0.15389,0.1533 0.11523,0.1152 3.12187,3.3871 3.46165,1.8308 7.79883,4.461 3.5248,2.1375 7.39795,5.1652 10.70898,7.8261 1.08362,1.054 2.07799,2.2074 3.25,3.1621 0.30933,0.252 -1.00019,-1.1514 -0.62304,-1.0214 2.82899,0.9753 10.34534,6.1563 12.58594,7.6484 1.68282,1.4444 4.86803,4.2957 7.36523,5.8945 2.15494,0.6204 4.30877,1.2477 6.46289,1.8711 5.34457,2.5934 9.62914,6.508 14.68164,9.5391 0.4533,0.2719 1.03908,0.2418 1.51367,0.4746 1.04392,0.5121 2.04133,1.1122 3.04883,1.6933 h 257.11133 c 1.08978,-0.5786 2.15163,-1.2207 3.30273,-1.6601 3.13853,-1.1981 6.44379,-1.8993 9.66602,-2.8496 2.32439,-0.6214 4.65022,-1.2439 6.97461,-1.8653 1.96774,-0.3891 3.96322,-0.6549 5.90234,-1.1679 0.29496,-0.078 -1.06595,0.1032 -0.90234,-0.1543 0.30724,-0.4837 0.9699,-0.6359 1.51562,-0.8106 9.24966,-2.9603 4.05443,-0.5672 7.94141,-2.4336 14.11247,-3.5998 2.16477,-0.5456 2.13477,-0.5566 -0.70744,-0.2542 1.00807,-1.2752 1.74414,-1.4277 4.57553,-0.9479 9.44947,-0.8978 13.75195,-2.7207 2.06885,-0.8765 -4.49103,-0.168 -6.73633,-0.252 2.84336,-1.3708 5.62567,-1.8817 8.51367,-2.3164 -0.0564,-0.064 -0.24696,-0.042 -0.23828,-0.1465 0.0299,-0.3592 5.4349,-2.2189 6.33594,-2.539 0.93363,-0.517 2.82348,-0.726 4.79297,-0.7442 4.85394,-2.3736 5.19753,-2.2498 11.98242,-2.9121 3.55278,-2.16 7.58736,-2.3173 11.58984,-2.5078 2.15828,-1.6219 4.94695,-2.0364 7.22071,-3.4199 0.38207,-0.2323 -1.62983,0.426 -1.33789,0.088 1.58954,-1.8449 3.81068,-2.8857 5.86914,-4.0821 -0.17424,0.038 -0.20778,0.07 -0.39453,0.1094 0.4509,-0.2218 1.77637,-0.9356 1.35351,-0.6641 -0.30619,0.1966 -0.64093,0.3699 -0.95898,0.5547 6.80946,-1.4959 4.40717,-2.5506 7.97656,-5.0605 1.80581,-1.2698 3.68914,-2.4053 5.55859,-3.5645 1.45268,-3.1723 5.3674,-6.2942 7.86914,-8.2226 0.20658,-0.1593 0.62744,-0.4029 0.97852,-0.6211 2.88942,-5.1325 3.02782,-4.6212 5.6582,-6.7461 2.46454,-6.8191 6.40565,-12.9217 10.97071,-18.5176 -0.18248,0.3505 0.63828,-1.8005 0.97461,-1.9434 0.50783,-0.9754 1.00318,-1.9577 1.47265,-2.9511 -0.19014,0.1776 -0.37384,0.3619 -0.56445,0.539 -0.3203,0.2976 1.57471,-2.7195 1.0293,-1.4707 -0.13889,0.318 -0.31665,0.6181 -0.46485,0.9317 2.39541,-2.2375 4.74864,-4.51877 7.10742,-6.79494 0.45957,-1.87045 1.54274,-3.80879 2.92578,-5.92578 -2.01622,0.49013 -6.06254,8.92643 -5.95507,6.74804 0.0739,-1.49905 4.48892,-5.85923 6.79101,-8.07422 0.76579,-1.1417 1.57458,-2.46175 2.12305,-3.37695 0.82727,-1.38042 3.72548,-3.41237 5.24805,-3.99609 0.36494,-0.94897 0.63401,-1.52921 0.95117,-2.23438 -3.47332,3.53899 -6.00808,6.48102 -1.50391,0.38281 0.4508,-0.61034 0.93201,-1.19643 1.39844,-1.79492 0.78609,-0.91408 1.08097,-1.25533 1.24219,-1.39648 0.48325,-2.4369 0.96839,-4.87334 1.55273,-7.28711 0.4368,-1.80425 1.4142,-1.54415 0.39844,-1.69531 0.83522,-2.03151 1.55077,-4.11772 2.50586,-6.09571 0.91548,-1.89598 2.1524,-3.62357 3.0957,-5.50586 0.356,-0.93416 0.71236,-1.86662 1.06836,-2.80078 -0.13741,-0.0476 -0.44611,-10e-4 -0.41211,-0.14258 1.15876,-4.81212 1.85344,-5.82149 3.66211,-8.69726 0.60847,-1.2414 1.16426,-2.5092 1.85547,-3.70508 0.32443,-0.5613 0.93194,-1.50345 1.41211,-2.13867 0.43075,-1.38463 0.92566,-2.7448 1.38867,-4.11719 0.0206,-0.0251 -0.005,0.007 0.0156,-0.0176 -0.25824,-1.3211 1.89678,-2.85668 2.55469,-4.3164 0.16668,-0.36981 0.0658,-1.61658 0.10547,-1.21289 0.0779,0.79209 0.16607,1.58331 0.24805,2.375 -0.10811,0.15627 0.14621,-0.16039 0.004,0.0371 0.23307,2.24944 0.47185,4.4988 0.70704,6.74804 1.79271,-6.16776 4.3834,-12.1582 5.37695,-18.5039 0.16624,-1.0618 -3.2125,2.91664 -3.1875,2.87304 6.50488,-11.34858 -0.24024,-0.016 5.67969,-10.28711 0.15752,-0.22053 0.401,-0.65723 0.61718,-1.02734 0.48584,-1.08776 1.00429,-2.16726 1.47461,-3.26367 0.0954,-0.51118 0.18565,-1.02325 0.30469,-1.5293 0.0685,-0.29139 -0.0114,0.42654 -0.0918,0.89258 1.92389,-8.90474 6.07807,-15.63778 9.79297,-22.13281 0.0724,-0.26174 0.12222,-0.52947 0.19532,-0.79102 -0.0746,0.0595 -0.17161,0.17629 -0.29102,0.35547 0.12635,-0.2209 0.24234,-0.4473 0.36914,-0.66797 3.72775,-13.28824 8.30129,-26.34675 13.4375,-39.21484 3.19252,-7.99845 6.9083,-15.779 10.19727,-23.73828 0.15248,-0.36903 1.05211,-2.68802 1.36523,-3.47852 V 296.0293 c -3.50107,-0.008 -6.97067,-0.87747 -10.4707,-1.15039 -1.87232,-0.14605 -3.75515,-0.0705 -5.63282,-0.10547 -8.84531,0.72835 -17.11968,0.19929 -24.39257,-5.37891 -5.76345,3.70075 -11.64252,7.25599 -17.54493,10.74805 -3.01894,0.84655 -5.95049,2.11392 -9.05664,2.54101 -6.43683,0.88506 -16.17467,-0.93798 -20.73828,-6.00976 -2.69393,-2.99391 -4.44059,-6.09196 -5.83594,-9.32617 -2.21806,1.58495 -4.51022,3.05275 -6.94921,4.25195 -2.91138,1.43146 -6.14963,2.06728 -9.22461,3.10156 -14.89814,4.0752 8.31413,-2.08635 -8.75977,1.74414 -0.13278,0.0298 0.2223,0.34659 0.0957,0.39649 -1.82218,0.71882 -7.78837,2.21208 -9.49218,2.08398 -3.66394,-0.27546 -7.21597,-1.38665 -10.82422,-2.08008 -2.72331,-1.73901 -5.96232,-2.85733 -8.16992,-5.21679 -4.58223,-4.89742 -7.52283,-10.82453 -9.58203,-17.1836 -0.73557,-0.24558 -1.48259,-0.45134 -2.19727,-0.76758 -0.23867,-0.10559 0.0558,-0.68691 -0.19531,-0.75781 -1.33952,-0.378 -2.81952,0.26096 -4.17578,0 -3.00064,-0.0152 -6.00172,-0.0393 -9.00196,0.0254 -1.23417,-0.065 -3.06215,0.17706 -3.89648,0.18164 -3.39273,0.56501 -6.39372,0.52681 -10.7793,-0.41601 -1.64982,-0.35468 -3.27937,-0.81029 -4.88672,-1.32422 -0.82267,-0.26304 -1.53868,-0.85992 -2.39062,-1.00195 -2.37427,-0.39583 -4.79645,-0.39727 -7.19532,-0.59571 -6.95993,-0.71509 -13.98729,-0.85991 -20.90039,-1.9375 -5.88539,-0.9174 -17.52876,-4.43303 -23.04687,-5.95898 -21.28028,-5.88475 -15.8073,-4.35119 -39.33203,-10.3086 -12.92521,-2.80599 -25.95507,-5.13514 -38.81641,-8.2207 -11.84683,-2.84218 -23.19468,-7.26492 -34.75781,-10.98437 -6.91886,-2.22555 -13.91561,-4.20482 -20.87305,-6.30664 -9.14213,-3.09059 -18.40715,-5.83717 -27.42578,-9.27149 -8.90313,-3.39034 -17.55494,-7.40989 -26.30078,-11.1875 -19.53984,-8.4399 -39.16116,-16.85834 -57.45117,-27.83203 l -9.70703,-4.48047 c -0.57055,0.17046 -1.14109,0.26956 -1.7168,0.11328 -1.67744,-0.45535 -3.2754,-1.126 -4.84961,-1.86133 z m 595.58398,734.77149 c -0.0328,0.15167 -0.0838,0.28453 -0.11523,0.4375 0.026,-0.0637 0.0652,-0.12338 0.0898,-0.1875 0.0301,-0.0782 0.003,-0.11949 0.0254,-0.25 z m -0.11523,0.4375 c -0.0277,0.068 -0.0686,0.13161 -0.0977,0.19922 -0.0405,0.21735 -0.0858,0.43358 -0.1289,0.65039 0.0558,-0.3023 0.16549,-0.55232 0.22656,-0.84961 z m -31.35742,71.78906 c 0.0424,-0.0432 0.0627,-0.062 0.10547,-0.10547 0.0107,-0.051 -0.0144,-0.0872 -0.002,-0.1289 -0.0337,0.0739 -0.0689,0.15745 -0.10351,0.23437 z m 0.10351,-0.23437 c 0.49033,-1.07591 0.76911,-1.7737 0.94532,-2.15625 0.004,-0.0189 0.008,-0.0377 0.0117,-0.0566 -0.29829,0.74729 -0.72257,1.43911 -0.95703,2.20507 -7.6e-4,0.002 7.6e-4,0.005 0,0.008 z m 0.94532,-2.15625 c -0.11346,0.56459 -0.2371,1.12695 -0.35938,1.68945 4.39547,-4.38483 9.84135,-9.02547 7.08399,-0.41992 -0.85438,2.66641 -1.53307,4.46223 -2.29102,6.65234 0.94901,-1.33454 1.91652,-2.62657 2.76758,-4.01172 1.21185,-5.56809 2.50882,-8.32753 3.82617,-8.03906 0.35683,-1.00845 0.82113,-1.97871 1.07227,-3.02344 0.67146,-2.79339 -5.62007,1.20087 -8.42969,1.80078 -0.75612,0.69761 -1.72832,1.21569 -2.26758,2.0918 -0.50806,0.82541 -0.77558,1.77314 -1.1582,2.66797 0.0575,-0.0297 -0.14372,0.37377 -0.24414,0.5918 z m 4.43359,7.92187 c -1.91681,2.69551 -3.86707,5.38991 -5.86524,7.94922 -0.80456,1.03053 -2.47567,-5.11754 -2.36718,-5.55859 0.41341,-1.6807 0.8997,-3.00491 1.37304,-4.33985 -3.64899,2.81753 -5.30593,3.77775 -5.86914,4.95313 0.0618,-0.0583 0.28199,-0.28297 0.33008,-0.32813 4.43104,-5.15675 2.34192,4.68516 -0.61719,9.78907 1.60675,8.03552 4.21859,12.95422 13.01563,-12.46485 z m -6.85938,-1.94922 c 0.64007,-0.49421 0.47836,-0.29956 1.30664,-0.98437 0.34051,-0.68542 -0.15679,-0.64088 -0.88085,-0.36328 -0.14545,0.3782 -0.27882,0.93317 -0.42579,1.34765 z m -19.2871,23.02339 c -0.33155,0.6369 -0.64456,1.2828 -0.9629,1.9258 0.39788,-0.4875 0.70221,-1.0441 1.10938,-1.5234 0.0247,-0.4072 -0.052,-0.4423 -0.14648,-0.4024 z m -0.9629,1.9258 c -0.004,0.01 -0.007,0.012 -0.0117,0.018 0.003,-0.01 -0.0176,0.043 -0.0137,0.035 0.009,-0.018 0.0167,-0.035 0.0254,-0.053 z M 454.14062,171.83594 c 0.25089,0.47802 0.85343,0.70601 1.54493,0.8164 l -0.71875,-0.33203 c -0.27548,-0.1614 -0.55267,-0.31932 -0.82618,-0.48437 z m 32.27149,6.5664 c 2.7437,0.72392 4.41545,1.19284 3.92383,0.64258 -1.31038,-0.2073 -2.62803,-0.33591 -3.92383,-0.64258 z m 266.60742,44.21094 c -0.16435,0.2264 -0.29191,0.46339 -0.45117,0.68945 3.73438,1.48335 7.46673,2.97129 11.19141,4.47852 -0.85904,-1.4116 -1.68605,-2.82426 -2.42774,-4.24023 -2.77267,-0.2694 -5.54234,-0.60389 -8.3125,-0.92774 z M 957,242.33594 c -0.40726,0.15264 -0.8128,0.31005 -1.2207,0.46094 -0.31439,0.81187 -0.66128,1.80722 -1,2.5996 0.74862,-0.0322 1.47557,-0.0503 2.2207,-0.0762 z m -184.08984,19.97461 c -0.085,0.89133 -0.47592,5.51947 0.49804,0.20898 -0.16571,-0.0705 -0.33233,-0.13854 -0.49804,-0.20898 z m 133.40039,676.62109 c -0.4295,0.49643 -0.88474,0.98628 -1.1211,1.57617 -0.4247,1.06 -0.99512,4.43278 -0.55078,3.38086 0.67858,-1.60639 1.1421,-3.2942 1.67188,-4.95703 z m 20.66406,20.25 c -0.0185,0.0415 -0.0363,0.0834 -0.0547,0.125 0.0194,-0.0404 0.0394,-0.0806 0.0586,-0.12109 -10e-4,-0.001 -0.003,-0.002 -0.004,-0.004 z m 0.17578,0.26172 c -0.0555,0.23938 -0.14503,0.52792 -0.20312,0.77734 1.57797,1.69382 3.09514,3.1571 4.09961,4.14453 -1.23807,-1.67763 -2.60736,-3.27565 -3.89649,-4.92187 z M 957,961.59375 c -2.23255,2.36845 -6.55105,4.41485 -14.24023,5.75781 -9.08004,1.58589 -14.42048,0.93963 -17.47461,-0.90234 -0.96262,2.78751 -2.22674,5.33013 -4.01758,6.62305 -0.57865,2.01089 -1.02445,4.06553 -1.73633,6.0332 -0.22727,0.62818 -0.59087,1.85003 -0.93359,2.72461 -0.86554,5.95827 -1.69896,6.56634 -5.55274,10.94726 -1.16088,2.91266 -1.89159,4.01382 -0.31836,1.90235 -1.37795,1.74005 -4.17383,5.99621 -5.26172,6.63081 -0.61424,0.3583 -1.66613,1.0153 -2.49023,1.5528 -0.23579,0.6374 -0.48835,1.6449 -0.6875,2.0996 -0.64626,1.4756 -4.92072,4.082 -3.93164,2.8105 1.87596,-2.4116 2.86511,-3.3518 3.98633,-4.5156 -2.38712,1.5595 -4.77204,3.0436 -6.59766,3.5391 -1.45814,2.5969 -2.09486,4.1528 -2.05859,4.8496 0.92178,-1.0506 1.78991,-2.1549 2.84375,-3.0742 0.79655,-0.6949 -0.20854,1.7005 -0.69922,2.957 1.635,-1.0414 3.72436,-2.8053 5.04687,-3.9277 -2.45237,2.2145 -4.27758,4.8595 -6.45703,7.1308 -0.34671,0.7834 -0.6083,1.6084 -1.05078,2.3399 -0.36436,0.6022 0.25574,-0.9194 0.67383,-2.002 -0.0114,0.011 -0.0238,0.022 -0.0352,0.033 -1.84005,5.0107 -0.30474,2.2426 -4.85547,9.3867 -4.1545,3.9843 -4.94297,6.6384 -6.7539,11.045 -1.56122,3.2562 -2.5344,6.1914 -4.93555,8.5078 -0.69922,0.8681 -1.81891,1.7193 -2.51562,2.4414 -0.2224,0.2304 0.21687,-0.5466 0.36914,-0.8867 -0.16528,0.1018 -0.27155,0.2261 -0.44727,0.3242 -1.12897,1.908 -2.25776,3.8166 -3.38672,5.7246 -1.23973,1.06 -2.45177,2.1524 -3.71875,3.1797 -0.79104,0.6414 -2.25385,2.6351 -2.56055,1.664 -0.29719,-0.9412 2.24087,-1.2654 1.52344,-2.5371 -1.98793,2.8432 -3.97496,5.686 -5.96289,8.5293 -2.18904,1.5441 -4.75341,2.7252 -6.88476,4.2188 -4.06568,2.8491 -5.6712,5.1349 -10.38868,6.7636 -0.82674,0.2855 1.37275,-1.0842 2.0586,-1.6269 -0.9519,0.678 -12.69357,9.7257 -14.04297,9.3555 -0.10324,-0.028 0.1263,-0.12 0.11523,-0.1661 -1.24119,0.9107 -2.48346,1.8164 -3.89648,2.3985 -1.27654,0.5259 -1.65049,0.5778 -2.46875,0.8847 h 44.67969 c 4.66124,-6.6987 9.6608,-13.2964 15.2832,-19.9531 5.52727,-6.5441 11.68604,-12.5302 17.38672,-18.9238 4.24731,-4.7635 8.30203,-9.6954 12.45312,-14.543 0.8841,-1.0284 1.76825,-2.0575 2.65235,-3.0859 7.21135,-11.4661 22.00936,-34.58061 37.28906,-58.47462 z m -52.6582,41.66405 c 0.21764,-0.1422 0.4234,-0.2579 0.63281,-0.3945 0.0572,-0.1547 0.10753,-0.347 0.16601,-0.5098 -0.19943,0.1951 -0.57422,0.6712 -0.79882,0.9043 z m -22.20899,-13.02928 c -0.10427,0.35723 -0.13048,0.44842 -0.26367,0.88671 0.0491,0.26089 0.10757,0.53821 0.15625,0.80665 0.13005,-0.12455 0.26047,-0.24864 0.39063,-0.37305 -0.0289,-0.67167 -0.16283,-0.97198 -0.28321,-1.32031 z m -20.10742,31.47068 c 0.78339,-0.81 -2.01011,1.1197 -2.74414,1.9746 -0.32695,0.3808 -0.50181,0.8689 -0.74805,1.3067 0.89882,-0.7618 1.89029,-1.625 3.49219,-3.2813 z m -42.06055,35.0254 c -0.35905,0.082 -0.66972,0.3062 -1.0039,0.4609 0.95113,-0.05 1.91367,-0.088 2.84765,-0.1875 0.61792,-0.066 -1.23776,-0.4108 -1.84375,-0.2734 z m -481.6914,13.082 c -1.32605,2.6641 -2.8197,4.9703 -4.5293,6.6465 0.46356,2.1517 0.89642,4.1656 1.6875,7.8574 h 12.7832 c -1.46361,-2.3963 -2.92183,-4.7937 -4.36523,-7.2011 -1.92483,-2.3857 -3.7027,-4.8793 -5.57617,-7.3028 z m 108.77148,0.9825 c 0.27787,0.1758 0.62622,0.5017 0.88086,0.6367 0.38738,0.2052 1.69165,0.332 1.31055,0.1152 -0.671,-0.3817 -1.84148,-0.6646 -2.19141,-0.7519 z" />
            <ellipse
               style="stroke:none;display:inline;fill-opacity:1;"
               id="path38"
               cx="474.64627"
               cy="985.60309"
               rx="59.383411"
               ry="67.277855" />
            <rect
               style="stroke:none;display:inline;fill-opacity:1;"
               id="rect38"
               width="7.8505664"
               height="17.128508"
               x="644.41846"
               y="1106.6846"
               transform="rotate(-4.7044359)" />
            <rect
               style="stroke:none;display:inline;fill-opacity:1;"
               id="rect39"
               width="25.92539"
               height="22.012123"
               x="1062.8735"
               y="-106.90633"
               transform="rotate(72.064745)" />
            <ellipse
               style="stroke:none;fill-opacity:1;"
               id="path39"
               cx="726.65472"
               cy="1068.8029"
               rx="18.282953"
               ry="2.9737334" />
          </g>
          <ellipse
             style="stroke:none;fill-opacity:1;"
             id="path40"
             cx="435.10965"
             cy="176.18045"
             rx="29.109707"
             ry="20.876659"
             transform="rotate(3.6566629)" />
        </g>
      </g>
    </pattern>
  </defs>
  <g
     inkscape:groupmode="layer"
     inkscape:label="Image"
     id="g1">
    <path
       style="stroke:none;fill:url(#wizard);stroke-width:1.01353"
       d="M 8.8635449,7.0834326 V 1213.8613 c 16.3926621,-2.8902 34.4106251,-4.8041 53.1764321,-4.7312 1.995873,-17.5162 5.683046,-33.4852 10.144033,-45.6154 10.958257,-29.7973 26.028476,-36.9023 35.82975,-38.6006 9.80126,-1.6984 14.33423,2.0088 28.82375,17.3204 14.48953,15.3116 38.93391,42.228 84.07402,62.0683 45.14011,19.8404 110.97319,32.603 177.78726,32.1367 66.81405,-0.4667 134.6052,-14.1639 176.93939,-26.8614 42.33419,-12.6975 59.2104,-24.3952 75.09909,-2.8868 9.92875,13.4405 19.47034,39.8475 16.03117,67.3087 H 862.77652 V 7.0834326 Z"
       id="rect9" />
    <g
       id="g2">
      <path
         d="m 936.98575,356.96325 196.77055,-149.34235 -35.2069,3.05937 77.6772,-99.15498 -163.7618,109.72095 35.2069,-3.05938 -110.6859,138.78587 z m -8.157,-13.72453 68.2098,-158.22839 -21.61727,10.24867 7.74089,-79.71422 -59.39093,106.96108 21.61727,-10.24867 -16.56921,130.98158 z m 25.47493,24.10434 168.80192,-20.38681 -21.8866,-13.55635 74.1873,-36.75444 -128.6991,5.8178 21.8866,13.55664 z"
         id="path1-3"
         style="stroke:none;fill-opacity:1;stroke-width:2.87368" />
      <path
         d="M 856.42716,343.0948 809.35718,100.59502 796.55097,133.53243 741.90312,20.04636 768.0065,215.43104 780.81283,182.49333 856.4356,343.09878 Z m -15.91618,1.25439 -111.82783,-131.08526 -0.35369,23.92101 -68.09737,-42.15463 69.72821,100.52806 0.35377,-23.92101 110.1928,72.72076 z m 32.87764,-12.20801 56.27007,-160.44752 -21.82963,13.64769 -0.20579,-82.79246 -51.62719,118.03383 21.82986,-13.64769 z"
         id="path1-3-7"
         sstyle="stroke:none;fill-opacity:1;"
         style="stroke:none;stroke-width:2.87368" />
      <path
         d="m 832.14143,410.67554 -245.79615,-24.61881 27.86674,21.73305 -124.40442,19.72225 194.6427,31.15843 -27.86671,-21.73305 175.56407,-26.26822 z m -3.37175,15.60571 -157.69655,69.4302 22.80995,7.21456 -59.94933,53.10742 116.32824,-37.89084 -22.80995,-7.21427 101.32457,-84.6405 z M 826.5266,391.2819 689.02372,291.26848 l 6.79756,24.83127 -79.35784,-23.60041 98.21342,83.37552 -6.79742,-24.83156 z"
         id="path1-3-2"
         style="stroke:none;fill-opacity:1;stroke-width:2.87368" />
      <path
         d="m 878.61462,471.06608 -102.19871,224.89373 29.52657,-19.41845 -21.24554,124.15376 91.97603,-174.34786 -29.52655,19.41802 31.46404,-174.70751 z m 13.6982,8.2017 15.14883,171.63696 14.15327,-19.28815 31.05893,73.82169 1.446,-122.33542 -14.15296,19.28844 -47.64591,-123.12874 z m -33.86809,-9.10795 -138.85123,98.13299 25.6996,1.53123 -47.81985,67.58654 110.48438,-66.26132 -25.69981,-1.53151 z"
         id="path1-3-2-8"
         style="stroke:none;fill-opacity:1;stroke-width:2.87368" />
      <path
         d="m 953.61021,435.19845 189.84129,158.05715 -10.9142,-33.61197 114.1083,53.33606 -143.8006,-134.82578 10.9141,33.61197 -160.15765,-76.56537 z m 11.53354,-11.04004 169.52885,30.80086 -14.8562,-18.75181 79.4084,-10.42124 -117.5932,-33.76057 14.8564,18.75152 -131.34634,13.37206 z m -17.7437,30.25139 57.90005,159.86683 8.2758,-24.37903 52.5261,63.99735 -34.669,-124.07827 -8.2762,24.37904 z"
         id="path1-3-2-3"
         style="stroke:none;fill-opacity:1;stroke-width:2.87368" />
      <g
         id="g96"
         transform="matrix(-0.01541152,-2.8736362,2.8736362,-0.01541152,-429.09987,3410.0399)"
         style="fill-opacity:1">
        <path
           class="cls-1"
           d="m 1040.3654,463.45291 v -16.0042 a 18.48415,18.48415 0 0 0 -16.0196,16.0042 z"
           id="path1"
           style="stroke:none;fill-opacity:1;" />
        <path
           class="cls-1"
           d="m 1044.9864,463.45291 h 16.0042 a 18.48415,18.48415 0 0 0 -16.0042,-16.0042 z"
           id="path2"
           style="stroke:none;fill-opacity:1;" />
        <path
           class="cls-1"
           d="m 1044.9864,468.07394 v 16.0196 a 18.48415,18.48415 0 0 0 16.0042,-16.0196 z"
           id="path3"
           style="stroke:none;fill-opacity:1;" />
        <path
           class="cls-1"
           d="m 1040.3654,468.07394 h -16.0196 a 18.48415,18.48415 0 0 0 16.0196,16.0196 z"
           id="path4"
           style="stroke:none;fill-opacity:1;" />
      </g>
    </g>
  </g>
</svg>
